<?xml version="1.0" encoding="UTF-8"?>
<svg xmlns="http://www.w3.org/2000/svg" version="1.1" viewBox="0 0 285 275">
  <defs>
    <style>
      .cls-1 {
        fill: #d7ffd0;
      }

      .cls-2 {
        font-family: Arial-BoldMT, Arial;
        font-size: 10px;
        font-weight: 700;
      }

      .cls-3 {
        fill: #ffd0d0;
      }

      .cls-4 {
        isolation: isolate;
      }

      .cls-5 {
        fill: #f2d0ff;
      }

      .cls-6 {
        fill: #ffffd0;
      }
    </style>
  </defs>
  <!-- Generator: Adobe Illustrator 28.7.3, SVG Export Plug-In . SVG Version: 1.2.0 Build 164)  -->
  <g>
    <g id="Layer_1">
      <g id="States">
        <path id="AL" class="cls-3" d="M57.9,257.5l-1.6-14.8-2.7-18.3.2-13.7.8-30.3-.2-16.2.2-6.3,7.5-.4,27-2.5,9.9-.9v2.1c-.1,0,0,2,0,2l.6,3.3,3.3,7.7,2.4,9.6,1.4,6,1.6,4.7,1.4,6.8,2,6.1,2.5,3.3.5,3.3,1.9.8.2,2-1.7,4.7-.5,3.2-.2,1.9,1.6,4.3.3,5.2-.8,2.4.6.8,1.4.8.8,3.5h-6.1l-6.6.6-24.8,2.8-9.9,1.3-.3,3,1.7,1.7,2.5,1.9.6,7.7-6.4,2.5-2.7-.3,2.7-1.9v-.9l-3-5.8-2.2-.6-1.4,4.3-1.3,2.7-.6-.2h-2.7Z"/>
        <path id="NC" class="cls-5" d="M258.3,93.4l1.7,4.6,3.5,6.3,2.4,2.4.6,2.2-2.4.2.8.6-.3,4.1-2.5,1.3-.6,2-1.3,2.8-3.6,1.6-2.4-.3-1.4-.2-1.6-1.3.3,1.3v.9h1.9l.8,1.3-1.9,6.1h4.1l.6,1.6,2.2-2.2,1.3-.5-1.9,3.5-3,4.7h-1.3l-1.1-.5-2.7.6-5,2.4-6.3,5.2-3.3,4.6-1.9,6.3-.5,2.4-4.6.5-5.7,2.2-9.7-8-12.2-7.4-2.8-.8-12.2,1.4-4.2.5-1.6-3.2-2.2-1.9-16,.5-7.1.8-8.8,4.4-6,2.5-1.6.3-5.6.9-6.7.8-6.6.5.3-4.7,1.7-1.4,2.7-.6.6-3.6,4.1-2.7,3.8-1.4,4.1-3.5,4.2-2,.6-3,3.8-3.8.6-.2s0,1.1.8,1.1,1.9.3,1.9.3l2.2-3.5,2-.6,2.2.3,1.6-3.5,2.8-2.5.5-2v-3.9l4.4.7,6.9-1.3,15.4-1.9,16.6-2.5,20-3.7,18.6-3.7,11.1-2.8,4.8-1.6h0Z"/>
        <path id="TN" class="cls-6" d="M127.2,115l-50.4,4.9-15.3,1.7-4.5.5h-3.8s0,3.8,0,3.8l-8.2.5-6.7.6h-10.8c0,0-.3,5.7-.3,5.7l-2.1,6.1-1,2.9-1.3,4.3-.3,2.5-3.9,2.2,1.4,3.5-.9,4.3-1.5,1.7h7.9c0,0,23.4-2,23.4-2l5.2-.2,7.8-.5,27-2.5,9.9-.8,8.2-.9,8.2-1.1,4.7-.8.3-4.7,1.7-1.4,2.7-.6.6-3.6,4.1-2.7,3.8-1.4,4.1-3.5,4.2-2,.6-3,3.8-3.8.6-.2s0,1.1.8,1.1,1.9.3,1.9.3l2.2-3.5,2-.6,2.2.3,1.6-3.5,2.8-2.5.5-2,.2-3.8h-2.2c0,0-2.4,1.9-2.4,1.9l-7.7.2-11.6,1.9-9.5.8h0Z"/>
        <path id="WV" class="cls-6" d="M186.1,38.3l1.1,4.8.9,5.5.3-.3,2-2.4,2.2-3,2.4-.2,1.4-1.4,1.7-2.5,1.3.6,2.8-.3,2.5-2,1.9-1.4,1.8-.5,1.6,1.1,2.8,1.4,1.9,1.7,1.3,1.3-1,4.9-5.5-3-4.4-1.7-.2,5.2-.5,2-1.6,2.7-.6,1.6-3,2.4-.5,2.2-3.3.3-.3,3-1.1,5.4h-2.5l-1.3-.8-1.6-2.7-1.7.2-.3,4.3-2,6.5-4.9,10.6.8,1.3-.2,2.7-2,1.9-1.4-.3-3.1,2.4-2.5-.9-1.7,4.6s-3.6.8-4.2.9-2.4-1.3-2.4-1.3l-2.4,2.2-2.5.6-2.8-.8-1.3-1.3-2.1-2.9-3.1-1.9-2.5-2.7-2.8-3.6-.6-2.2-2.5-1.4-.8-1.6-.2-5.1h2.1c0,0,1.9-.9,1.9-.9l.2-2.7,1.6-1.4.2-4.9.9-3.8,1.3-.6,1.3,1.1.5,1.7,1.7-.9.5-1.6-1.1-1.7v-2.4l.9-1.3,2.2-3.3,1.3-1.4,2,.5,2.2-1.6,3-3.3,2.2-3.8.3-5.5.5-4.9v-4.6l-1.1-3,.9-1.4,1.2-1.3,3.4,19.3,4.5-.7,12.1-1.5h0Z"/>
        <path id="VA" class="cls-3" d="M152.3,92.1l1.9,3.5,1.3,1.3,2.8.8,2.5-.6,2.4-2.2s1.7,1.4,2.4,1.3,4.2-.9,4.2-.9l1.7-4.6,2.5.9,3.1-2.4,1.4.3,2-1.9.2-2.7-.8-1.3,4.9-10.6,2-6.5.3-4.3,1.7-.2,1.6,2.7,1.3.8h2.5l1.1-5.4.3-3,3.3-.3.5-2.2,3-2.4.6-1.6,1.6-2.7.5-2,.2-5.2,4.4,1.7,5.5,3,.8-5,4.1,2v2.8l5.3,1.3,1.9,1.3.9-1.9,2.2,1.6-1.4,3.2-.3,2.7-1.7,2.5v2l.6,1.7,4.9,1.3,1.8,1.5,5,.3,2.5,2.2,3.1.6,1.3,1.3-.5,4.4.9.9.2,2.2,1.3,2-.2,1.7-3.1-1.1v.9l1.9,1.6v1.1l1.4,1.1,1.3,1.6.2,2.2-2.2,1.4.3.5,2.5-.5,3.1-.6,1.1-.2,4,6.9-4.7,1.7-11.1,2.8-18.6,3.7-20,3.7-16.6,2.5-15.4,1.9-6.9,1.3-4.4-.6h-2.1s-2.4,1.9-2.4,1.9l-7.7.2-11.6,1.9-9.7.9,2.7-1.3,5.5-3.3,3.8-2v-2l1.7-1.7,4.4-5.2,4.1-3.5,3.1-3.8h0Z"/>
        <path id="KY" class="cls-1" d="M152.2,92.8l-3,3.1-4.1,3.5-4.4,5.2-1.7,1.7v2l-3.8,2-5.5,3.3-2.5,1.4-50.3,4.8-15.3,1.7-4.5.5h-3.8s0,3.8,0,3.8l-8.2.5-6.7.6-10.1.2,1-1.2,2.1-1.7,2-1.1.2-3.1.9-1.8-1.6-2.5.8-1.9,2.2-1.7,2-.6,2.7,1.3,3.5,1.3,1.1-.3.2-2.2-1.3-2.4.3-2.2,1.9-1.4,2.5-.6,1.6-.6-.8-1.7-.6-1.9,1.1-.8,1-3.2,2.9-1.7,5.6-.9,3.5-.5,1.4,1.9,1.7.8,1.7-3.2,2.8-1.4,1.9,1.6.8,1.1,2-.5-.2-3.3,2.8-1.6,1.1-.8,1.1,1.6h4.6l.8-2-.3-2.2,2.8-3.5,4.6-3.8.5-4.4,2.7-.3,3.8-1.7,2.7-1.9-.3-1.9-1.4-1.4.5-2.1,4-.2,2.4-.8,2.8,1.6,1.6,4.3,5.6.3,1.7,1.7,2,.2,2.4-1.4,3,.5,1.3,1.4,2.7-2.5,1.7-1.3h1.6l.6,2.7,1.7.9,3.5,2,.2,5.4.8,1.6,2.5,1.4.6,2.2,2.8,3.6,2.5,2.7,3.2,2.1Z"/>
      </g>
      <g>
        <g id="trsvg13016" class="cls-4">
          <g class="cls-4">
            <text class="cls-2" transform="translate(55.4 142.2)"><tspan x="0" y="0">Tennessee</tspan></text>
          </g>
        </g>
        <g id="trsvg13167" class="cls-4">
          <g class="cls-4">
            <text class="cls-2" transform="translate(60.7 203)"><tspan x="0" y="0">Alabama</tspan></text>
          </g>
        </g>
        <g id="trsvg13771" class="cls-4">
          <g class="cls-4">
            <text class="cls-2" transform="translate(79.3 104)"><tspan x="0" y="0">Kentucky</tspan></text>
          </g>
        </g>
        <g id="trsvg13922" class="cls-4">
          <g class="cls-4">
            <text class="cls-2" transform="translate(193 86.4)"><tspan x="0" y="0">Virginia</tspan></text>
          </g>
        </g>
        <g id="trsvg14073" class="cls-4">
          <g class="cls-4">
            <text class="cls-2" transform="translate(172.8 126.7)"><tspan x="0" y="0">North Carolina</tspan></text>
          </g>
        </g>
        <g id="trsvg15130" class="cls-4">
          <g class="cls-4">
            <text class="cls-2" transform="translate(154 63.3)"><tspan x="0" y="0">West</tspan><tspan x="-6.4" y="12">Virginia</tspan></text>
          </g>
        </g>
      </g>
    </g>
  </g>
</svg>